<?xml version="1.0" encoding="iso-8859-1"?>
<!-- Generator: Adobe Illustrator 19.0.0, SVG Export Plug-In . SVG Version: 6.00 Build 0)  -->
<svg xmlns="http://www.w3.org/2000/svg" xmlns:xlink="http://www.w3.org/1999/xlink" version="1.1" id="Layer_1" x="0px" y="0px" viewBox="0 0 512.004 512.004" style="enable-background:new 0 0 512.004 512.004;" xml:space="preserve" width="512" height="512">
<g>
	<g>
		<g>
			<path d="M256.002,207.085c-13.363,0-24.234-10.871-24.234-24.234s10.871-24.234,24.234-24.234     c13.363,0,24.234,10.871,24.234,24.234S269.365,207.085,256.002,207.085z M256.002,173.618c-5.092,0-9.234,4.142-9.234,9.234     s4.142,9.234,9.234,9.234s9.234-4.142,9.234-9.234S261.094,173.618,256.002,173.618z"/>
		</g>
		<g>
			<path d="M256.002,104.914c-13.363,0-24.234-10.872-24.234-24.234s10.871-24.234,24.234-24.234     c13.363,0,24.234,10.871,24.234,24.234S269.365,104.914,256.002,104.914z M256.002,71.446c-5.092,0-9.234,4.142-9.234,9.234     s4.142,9.234,9.234,9.234s9.234-4.143,9.234-9.234S261.094,71.446,256.002,71.446z"/>
		</g>
		<g>
			<path d="M256.002,411.429c-13.363,0-24.234-10.871-24.234-24.234s10.871-24.234,24.234-24.234     c13.363,0,24.234,10.872,24.234,24.234S269.365,411.429,256.002,411.429z M256.002,377.96c-5.092,0-9.234,4.143-9.234,9.234     s4.142,9.234,9.234,9.234s9.234-4.142,9.234-9.234S261.094,377.96,256.002,377.96z"/>
		</g>
	</g>
	<g>
		<path d="M59.954,443.363c1.347,2.396,3.868,3.824,6.536,3.824c0.532,0,1.07-0.057,1.606-0.174l88.856-19.462    c13.42-2.939,23.997-13.508,26.946-26.926l9.571-43.549c3.652-16.618,4.743-33.638,3.24-50.586l-3.223-36.361    c-0.314-3.541-3.07-6.375-6.6-6.787c-3.536-0.413-6.866,1.709-7.988,5.082l-19.93,59.905c-1.191,3.581-3.198,6.917-5.803,9.648    L61.065,434.51C58.789,436.896,58.338,440.489,59.954,443.363z M164.018,348.331c4.123-4.321,7.299-9.601,9.184-15.268    l8.531-25.642l0.035,0.393c1.368,15.426,0.375,30.917-2.949,46.042l-9.571,43.549c-1.697,7.721-7.783,13.802-15.504,15.494    l-64.887,14.212L164.018,348.331z"/>
		<path d="M342.756,397.404l-2.111-9.604c-0.89-4.045-4.891-6.604-8.936-5.715c-4.046,0.89-6.604,4.89-5.715,8.936l2.111,9.604    c2.949,13.418,13.525,23.987,26.945,26.926l88.857,19.462c0.536,0.118,1.073,0.174,1.606,0.174c2.667,0,5.188-1.428,6.535-3.824    c1.616-2.875,1.166-6.468-1.11-8.854l-92.102-96.534c-2.604-2.73-4.611-6.066-5.804-9.648l-19.93-59.905    c-1.122-3.373-4.456-5.49-7.987-5.082c-3.53,0.413-6.286,3.247-6.6,6.787l-3.224,36.361c-1.502,16.951-0.412,33.97,3.24,50.586    l0.905,4.12c0.889,4.045,4.893,6.604,8.935,5.715c4.046-0.889,6.604-4.889,5.716-8.935l-0.905-4.12    c-3.324-15.124-4.316-30.615-2.949-46.042l0.035-0.394l8.531,25.644c1.886,5.668,5.062,10.947,9.184,15.267l75.163,78.78    l-64.889-14.212C350.539,411.207,344.453,405.125,342.756,397.404z"/>
		<path d="M500.842,455.796c-2.4-6.805-7.557-12.059-14.145-14.591l-87.853-135.141c-0.065-0.1-0.133-0.198-0.202-0.295    c-2.42-3.36-4.009-7.302-4.597-11.4c-0.03-0.212-0.069-0.423-0.118-0.632l-17.541-75.545c-0.854-5.743-2.489-11.278-4.795-16.483    l16.974-14.031c4.008,2.638,8.799,4.179,13.945,4.179c14.025,0,25.437-11.411,25.437-25.436s-11.411-25.436-25.437-25.436    s-25.437,11.411-25.437,25.436c0,3.435,0.688,6.71,1.927,9.702l-15.144,12.518c-6.748-8.852-15.757-15.976-26.281-20.388    l-25.389-10.643c-8.616-3.612-14.652-11.273-16.147-20.496l-1.568-9.667C309,110.689,317.907,88.004,317.907,67.36    c0-18.213-3.326-32.321-10.168-43.128C297.56,8.153,280.153,0,256.002,0c-61.905,0-61.905,50.7-61.905,67.36    c0,20.645,8.907,43.33,23.434,60.087l-1.567,9.667c-1.496,9.222-7.532,16.884-16.147,20.496l-25.389,10.643    c-20.671,8.666-35.516,27.782-38.81,49.939l-1.227,5.284c-0.937,4.035,1.574,8.065,5.609,9.002    c4.039,0.935,8.065-1.575,9.002-5.609l1.298-5.588c0.048-0.209,0.088-0.42,0.119-0.633c2.451-17.105,13.873-31.881,29.808-38.561    l25.39-10.644c13.421-5.627,22.825-17.563,25.155-31.928l2.144-13.222c0.374-2.304-0.347-4.65-1.948-6.348    c-13.489-14.296-21.869-34.445-21.869-52.585c0-27.195,5.682-52.36,46.905-52.36c32.439,0,46.905,16.148,46.905,52.36    c0,18.139-8.38,38.288-21.869,52.585c-1.602,1.697-2.322,4.044-1.948,6.348l2.145,13.222    c2.329,14.366,11.733,26.302,25.155,31.929l25.389,10.643c8.26,3.463,15.291,9.112,20.505,16.122l-81.662,67.502    c-4.067-3.086-9.132-4.921-14.619-4.921c-13.363,0-24.234,10.871-24.234,24.234s10.871,24.234,24.234,24.234    c13.363,0,24.234-10.871,24.234-24.234c0-2.417-0.36-4.75-1.022-6.955l80.22-66.31c0.982,2.869,1.716,5.839,2.153,8.889    c0.03,0.212,0.069,0.424,0.118,0.633l17.542,75.551c0.958,6.303,3.413,12.36,7.114,17.551l87.988,135.35    c0.789,2.467,2.836,4.458,5.548,5.05c0.002,0,0.003,0,0.005,0.001l0.014,0.003c3.214,0.708,5.685,2.893,6.779,5.998    c1.097,3.11,0.54,6.368-1.528,8.938c-15.442,19.18-39.288,29.247-63.788,26.959l-164.324-23.289c-0.698-0.099-1.408-0.099-2.105,0    L90.625,496.682c-24.514,2.29-48.346-7.779-63.788-26.96c-2.068-2.569-2.625-5.827-1.529-8.937    c1.097-3.111,3.575-5.299,6.797-6.002c1.932-0.422,3.62-1.59,4.695-3.25l88.845-137.156c3.7-5.189,6.153-11.244,7.11-17.544    l9.406-40.512c0.937-4.035-1.575-8.065-5.609-9.002c-4.038-0.934-8.065,1.575-9.002,5.609l-9.475,40.809    c-0.048,0.209-0.088,0.42-0.119,0.633c-0.587,4.098-2.176,8.04-4.596,11.399c-0.072,0.1-0.142,0.202-0.209,0.306L25.719,441.05    c-6.785,2.469-12.107,7.799-14.557,14.746c-2.822,8.001-1.33,16.724,3.991,23.332c16.863,20.947,42.027,32.877,68.58,32.875    c2.814,0,5.649-0.134,8.486-0.406c0.113-0.011,0.226-0.024,0.337-0.04l163.445-23.165l163.444,23.165    c0.112,0.016,0.225,0.029,0.338,0.04c29.602,2.833,58.415-9.303,77.066-32.469C502.172,472.52,503.663,463.797,500.842,455.796z     M402.511,155.984c5.755,0,10.437,4.682,10.437,10.436s-4.682,10.436-10.437,10.436s-10.437-4.682-10.437-10.436    S396.756,155.984,402.511,155.984z M256.002,294.257c-5.092,0-9.234-4.142-9.234-9.234s4.142-9.234,9.234-9.234    s9.234,4.142,9.234,9.234S261.094,294.257,256.002,294.257z"/>
	</g>
</g>















</svg>
