<svg height="512" viewBox="0 0 36 60" width="512" xmlns="http://www.w3.org/2000/svg"><path id="Shape" d="m.2 56.73c-.08325302.2599307-.05664319.5425958.07365654.7824228.13029973.2398271.3529655.4159736.61634346.4875772 5.59214811 1.4075843 11.3439765 2.0799196 17.11 2 5.7660235.0799196 11.5178519-.5924157 17.11-2 .5291793-.1504033.8374905-.7000015.69-1.23-1.05-3.77-5.72-15.98-2.8-27.53 1.0322218-3.9948512 1.7016065-8.0747504 2-12.19.0087381-.2130079-.0508259-.4232339-.17-.6-3-4.48-4-12.18-3.91-14.36.0245883-.54584788-.1752198-1.07798976-.5529906-1.47276024-.3777707-.39477047-.9006083-.61779328-1.4470094-.61723976h-1.92c-1.1045695 0-2 .8954305-2 2v4c-.39 3.14-3.85 4-7 4s-6.61-.84-7-4v-4c0-1.1045695-.8954305-2-2-2h-1.92c-.54640113-.00055352-1.06923866.22246929-1.44700945.61723976-.37777079.39477048-.57757889.92691236-.55299055 1.47276024.11 2.18-.93 9.88-3.91 14.36-.11917411.1767661-.17873813.3869921-.17.6.29839353 4.1152496.96777816 8.1951488 2 12.19 2.59 10.34-1 21.75-2.38 26-.16.65-.32 1.14-.42 1.49zm17.8-44.73c2.3311123.1396013 4.646165-.4663051 6.61-1.73-.9801194 2.8120245-3.6320618 4.696112-6.61 4.696112s-5.6298806-1.8840875-6.61-4.696112c1.963835 1.2636949 4.2788877 1.8696013 6.61 1.73zm-13 16.76c-.98489416-3.7677477-1.65387883-7.6110646-2-11.49 3.16-4.95 4.2-12.89 4.08-15.27h1.92v6c0 4.9705627 4.0294373 9 9 9s9-4.0294373 9-9v-6h1.92c-.12 2.38.92 10.32 4.06 15.27-.3403418 3.8782658-1.0026241 7.7215103-1.98 11.49-2.28 9.11-.23 18.82 2.54 27.53-10.255724 2.2715497-20.884276 2.2715497-31.14 0 2.8-8.71 4.86-18.38 2.6-27.53z"/></svg>