<svg height="480pt" viewBox="0 -3 480 480" width="480pt" xmlns="http://www.w3.org/2000/svg"><path d="m183.710938 127.328125-.304688-25.800781-16 .183594.234375 19.472656-18.898437 4.710937c-3.597657.898438-6.109376 4.15625-6.0625 7.867188l.25 19.429687-18.859376 4.679688c-3.710937.921875-6.25 4.339844-6.0625 8.160156l.992188 20-16.238281 11.695312c-3.113281 2.234376-4.207031 6.359376-2.609375 9.839844l8.085937 17.601563-15.308593 11.847656c-2.957032 2.273437-3.953126 6.28125-2.402344 9.671875l8.089844 17.601562-15.28125 11.839844 9.792968 12.65625 20.335938-15.738281c2.953125-2.269531 3.949218-6.28125 2.398437-9.671875l-8.078125-17.597656 15.304688-11.847656c2.949218-2.273438 3.945312-6.277344 2.398437-9.664063l-8-17.417969 14.398438-10.398437c2.210937-1.585938 3.464843-4.183594 3.328125-6.898438l-.878906-17.773437 18.617187-4.625c3.601563-.894532 6.117187-4.152344 6.070313-7.863282l-.246094-19.441406 18.886718-4.703125c3.578126-.898437 6.074219-4.128906 6.046876-7.816406zm0 0"/><path d="m330.691406 329.394531 2.289063-15.996093 15.839843 2.265624-2.289062 15.996094zm0 0"/><path d="m335.246094 297.398438 20.601562-144 15.839844 2.265624-20.601562 144zm0 0"/><path d="m408 450.527344c0-13.253906-10.746094-24-24-24h-22.113281l-57.152344-28.574219 38.929687-272.488281 6.3125-9.472656c6.882813-10.257813 8.605469-23.132813 4.664063-34.839844l-27.046875-81.152344-15.203125 5.054688 27.058594 81.160156c2.363281 7.023437 1.328125 14.746094-2.800781 20.898437l-167.304688 250.976563c-1.210938 1.8125-1.625 4.042968-1.152344 6.175781l16 72c.8125 3.65625 4.058594 6.261719 7.808594 6.261719h24c4.417969 0 8 3.582031 8 8 0 4.417968-3.582031 8-8 8h-68.222656c-9.097656.027344-17.421875-5.113282-21.464844-13.261719l-35.832031-71.664063c-1.628907-3.265624-2.476563-6.859374-2.480469-10.503906v-5.824218c-.011719-7.351563 4.988281-13.761719 12.121094-15.546876l13.816406-3.445312c2.496094-.625 4.542969-2.410156 5.496094-4.800781l50.246094-125.632813c8.914062-22.25 20.355468-43.40625 34.097656-63.046875l34.773437-49.6875c1.546875-2.210937 1.878907-5.046875.882813-7.554687l-32-80-14.867188 5.9375 30.402344 76-32.304688 46.152344c-14.449218 20.644531-26.472656 42.882812-35.832031 66.28125l-48.742187 121.839843-9.851563 2.46875c-14.25 3.546875-24.25 16.347657-24.238281 31.035157v5.824218c.007812 6.125 1.433594 12.171875 4.167969 17.65625l35.832031 71.660156c1.101562 2.148438 2.394531 4.195313 3.855469 6.113282h-83.855469v16h448v-16h-73.472656c.949218-2.5625 1.445312-5.269532 1.472656-8zm-184.734375-144.480469-7.050781 77.730469-20.472656 30.75-11.199219-50.398438zm15.261719 152.480469c.949218-2.5625 1.445312-5.269532 1.472656-8 0-13.253906-10.746094-24-24-24h-9.054688l23.710938-35.558594c.753906-1.109375 1.214844-2.386719 1.34375-3.722656l9.894531-109.09375 81.234375-121.839844-35.050781 245.078125c-.488281 3.414063 1.261719 6.757813 4.347656 8.296875l64 32c1.109375.554688 2.332031.839844 3.574219.839844h24c4.417969 0 8 3.582031 8 8 0 4.417968-3.582031 8-8 8zm0 0"/><path d="m0 458.527344h16v16h-16zm0 0"/></svg>