<?xml version="1.0" encoding="UTF-8" standalone="no"?>
<svg
   xmlns:dc="http://purl.org/dc/elements/1.1/"
   xmlns:cc="http://creativecommons.org/ns#"
   xmlns:rdf="http://www.w3.org/1999/02/22-rdf-syntax-ns#"
   xmlns:svg="http://www.w3.org/2000/svg"
   xmlns="http://www.w3.org/2000/svg"
   xmlns:sodipodi="http://sodipodi.sourceforge.net/DTD/sodipodi-0.dtd"
   xmlns:inkscape="http://www.inkscape.org/namespaces/inkscape"
   id="Capa_1"
   enable-background="new 0 0 512.002 512.002"
   height="512"
   viewBox="0 0 512.002 512.002"
   width="512"
   version="1.1"
   sodipodi:docname="deep-tissue.svg"
   inkscape:version="1.0.1 (c497b03c, 2020-09-10)">
  <metadata
     id="metadata860">
    <rdf:RDF>
      <cc:Work
         rdf:about="">
        <dc:format>image/svg+xml</dc:format>
        <dc:type
           rdf:resource="http://purl.org/dc/dcmitype/StillImage" />
      </cc:Work>
    </rdf:RDF>
  </metadata>
  <defs
     id="defs858" />
  <sodipodi:namedview
     pagecolor="#ffffff"
     bordercolor="#666666"
     borderopacity="1"
     objecttolerance="10"
     gridtolerance="10"
     guidetolerance="10"
     inkscape:pageopacity="0"
     inkscape:pageshadow="2"
     inkscape:window-width="1680"
     inkscape:window-height="997"
     id="namedview856"
     showgrid="false"
     inkscape:zoom="1.2337593"
     inkscape:cx="136.97446"
     inkscape:cy="227.44514"
     inkscape:window-x="0"
     inkscape:window-y="25"
     inkscape:window-maximized="0"
     inkscape:current-layer="Capa_1"
     inkscape:document-rotation="0" />
  <path
     d="m 265.99938,378.8888 c 0.083,-2.898 0.125,-5.772 0.125,-8.545 -10e-4,-3.962 -0.086,-8.049 -0.254,-12.146 -0.225,-5.519 -4.881,-9.784 -10.398,-9.585 -5.519,0.226 -9.81,4.882 -9.585,10.399 0.156,3.83 0.236,7.645 0.237,11.335 0,2.58 -0.039,5.261 -0.117,7.97 -0.158,5.521 4.189,10.124 9.71,10.282 0.098,0.003 0.194,0.004 0.292,0.004 5.39,0 9.835,-4.291 9.99,-9.714 z"
     id="path837" />
  <path
     d="m 245.98254,76.636961 c -0.074,2.716 -0.112,5.433 -0.113,8.076 0,4.103 0.092,8.351 0.273,12.628 0.228,5.373999 4.656,9.576999 9.984,9.576999 0.143,0 0.287,-0.003 0.431,-0.009 5.518,-0.234 9.802,-4.896 9.567,-10.414999 -0.169,-3.996 -0.255,-7.96 -0.255,-11.779 0,-2.462 0.036,-4.995 0.105,-7.531 0.15,-5.521 -4.202,-10.119 -9.723,-10.27 -5.55,-0.167 -10.118,4.204 -10.269,9.723 z"
     id="path843" />
  <path
     d="m 10.002,446.001 h 82.019 c 4.899,4.4 10.297,8.119 16.119,11.143 -1.308,12.572 -2.137,29.516 -2.137,44.857 0,5.522 4.477,10 10,10 h 280 c 5.522,0 10,-4.478 10,-10 0,-58.632 -12.333,-90.008 -23.214,-117.69 -10.059,-25.593 -18.746,-47.694 -16.798,-87.825 1.131,-23.34 8.29,-44.19 16.581,-68.334 2.934,-8.545 5.914,-17.234 8.731,-26.335 l 43.095,118.161 c 1.759,4.824 6.874,7.514 11.819,6.274 l 58.21,-14.55 c 2.598,-0.649 4.827,-2.313 6.188,-4.619 1.361,-2.307 1.74,-5.062 1.053,-7.649 L 495.073,236.97 c -1.418,-5.339 -6.905,-8.513 -12.232,-7.098 -5.338,1.418 -8.516,6.895 -7.098,12.232 l 13.989,52.656 -39.63,9.905 -49.952,-136.959 c 3.92,-19.178 5.852,-38.089 5.852,-57.704 0,-5.522 -4.478,-10 -10,-10 -5.522,0 -10,4.478 -10,10 0,43.243 -9.59,74.501 -22.347,111.655 -8.42,24.521 -16.373,47.683 -17.642,73.859 -2.156,44.42 7.713,69.528 18.161,96.111 10.059,25.591 20.438,51.996 21.699,100.374 0,0 -77.824,-9.4e-4 -116.736,0 -6.899,1.7e-4 -13.798,8.3e-4 -20.697,0.001 -40.775,9.9e-4 -122.325,0 -122.325,0 0.215,-9.735 0.726,-19.521 1.442,-27.826 5.474,1.2 11.063,1.826 16.725,1.826 h 71.72 c 16.542,0 30,-13.458 30,-30 v -40 c 0,-16.542 -13.458,-30 -30,-30 h -11.004 c -4.031,-19.774 -19.772,-35.334 -39.636,-39.113 0.961,-9.793 1.172,-20.144 0.629,-31.372 -1.269,-26.178 -9.222,-49.339 -17.641,-73.86 -11.75,-34.219 -22.347,-66.725 -22.347,-111.655 0,-5.522 -4.477,-10 -10,-10 -5.523,0 -10,4.478 -10,10 0,19.616 1.932,38.525 5.851,57.697 l -49.95,136.969 -39.63,-9.905 c 0,0 48.27,-181.688 48.281,-181.736 7.801,-31.22 35.726,-53.023 67.908,-53.023 h 37.54 c 24.146,0 44.349,-17.206 48.996,-40.01 h 17.87 c 21.34457,0.367958 20.99739,0.009 44.139,0.009 4.646,22.794 24.85,40 48.995,40 h 37.54 c 32.183,0 60.107,21.805 67.908,53.023 0.013,0.048 11.18,42.088 11.18,42.088 1.418,5.337 6.893,8.518 12.232,7.098 5.338,-1.418 8.516,-6.895 7.098,-12.232 L 460.836,108.104 C 450.779,68 414.895,40.001 373.542,40.001 h -37.54 c -16.542,0 -30,-13.458 -30,-30 0,-5.522 -4.478,-10 -10,-10 h -80 c -5.523,0 -10,4.478 -10,10 0,16.542 -13.458,30 -30,30 h -37.54 c -41.353,0 -77.238,28.001 -87.293,68.103 L 0.338,299.434 c -1.433,5.394 1.83,10.916 7.24,12.269 l 58.21,14.55 c 4.953,1.24 10.062,-1.456 11.819,-6.274 l 43.096,-118.161 c 2.817,9.101 5.797,17.79 8.731,26.335 8.29,24.144 15.45,44.995 16.581,68.333 0.516,10.658 0.297,20.389 -0.661,29.517 h -1.071 c -19.483,0 -37.88,7.071 -52.262,20 H 10.002 c -5.523,0 -10,4.478 -10,10 v 80 c 0,5.521 4.477,9.998 10,9.998 z m 10,-80 h 76 c 2.652,0 5.196,-1.054 7.071,-2.929 11.009,-11.009 25.644,-17.071 41.209,-17.071 h 11.72 c 13.038,0 24.159,8.359 28.287,20 h -28.287 c -5.523,0 -10,4.478 -10,10 0,5.522 4.477,10 10,10 h 60 c 5.514,0 10,4.486 10,10 v 40 c 0,5.514 -4.486,10 -10,10 h -71.72 c -15.319,0 -30.18,-6.041 -41.209,-17.07 -1.875,-1.876 -4.419,-2.93 -7.071,-2.93 h -76 z"
     id="path847"
     sodipodi:nodetypes="sccssssccccccccccsccccsssccccaaccsssssccccsssccccsscccsscccccssssssssccccccsccscsssscsssscsssssssscscc" />
  <circle
     cx="474.00201"
     cy="196.00101"
     r="10"
     id="circle851" />
  <path
     d="m 245.98254,132.97513 c -0.074,2.716 -0.112,5.433 -0.113,8.076 0,4.103 0.092,8.351 0.273,12.628 0.228,5.374 4.656,9.577 9.984,9.577 0.143,0 0.287,-0.003 0.431,-0.009 5.518,-0.234 9.802,-4.896 9.567,-10.415 -0.169,-3.996 -0.255,-7.96 -0.255,-11.779 0,-2.462 0.036,-4.995 0.105,-7.531 0.15,-5.521 -4.202,-10.119 -9.723,-10.27 -5.55,-0.167 -10.118,4.204 -10.269,9.723 z"
     id="path843-3"
     style="stroke-width:1" />
  <path
     d="m 245.98254,189.31329 c -0.074,2.716 -0.112,5.433 -0.113,8.076 0,4.103 0.092,8.351 0.273,12.628 0.228,5.374 4.656,9.577 9.984,9.577 0.143,0 0.287,-0.003 0.431,-0.009 5.518,-0.234 9.802,-4.896 9.567,-10.415 -0.169,-3.996 -0.255,-7.96 -0.255,-11.779 0,-2.462 0.036,-4.995 0.105,-7.531 0.15,-5.521 -4.202,-10.119 -9.723,-10.27 -5.55,-0.167 -10.118,4.204 -10.269,9.723 z"
     id="path893"
     style="stroke-width:1" />
  <path
     d="m 245.98254,245.65145 c -0.074,2.716 -0.112,5.433 -0.113,8.076 0,4.103 0.092,8.351 0.273,12.628 0.228,5.374 4.656,9.577 9.984,9.577 0.143,0 0.287,-0.003 0.431,-0.009 5.518,-0.234 9.802,-4.896 9.567,-10.415 -0.169,-3.996 -0.255,-7.96 -0.255,-11.779 0,-2.462 0.036,-4.995 0.105,-7.531 0.15,-5.521 -4.202,-10.119 -9.723,-10.27 -5.55,-0.167 -10.118,4.204 -10.269,9.723 z"
     id="path843-35"
     style="stroke-width:1" />
  <path
     d="m 245.98254,301.98964 c -0.074,2.71601 -0.112,5.433 -0.113,8.07601 0,4.103 0.092,8.35099 0.273,12.628 0.228,5.374 4.656,9.57699 9.984,9.57699 0.143,0 0.287,-0.003 0.431,-0.009 5.518,-0.234 9.802,-4.896 9.567,-10.41499 -0.169,-3.996 -0.255,-7.96001 -0.255,-11.779 0,-2.462 0.036,-4.99501 0.105,-7.53101 0.15,-5.521 -4.202,-10.119 -9.723,-10.27 -5.55,-0.167 -10.118,4.204 -10.269,9.723 z"
     id="path843-1"
     style="stroke-width:1" />
  <path
     d="m 265.99938,435.22697 c 0.083,-2.898 0.125,-5.772 0.125,-8.545 -10e-4,-3.962 -0.086,-8.049 -0.254,-12.146 -0.225,-5.519 -4.881,-9.784 -10.398,-9.585 -5.519,0.226 -9.81,4.882 -9.585,10.399 0.156,3.83 0.236,7.645 0.237,11.335 0,2.58 -0.039,5.261 -0.117,7.97 -0.158,5.521 4.189,10.124 9.71,10.282 0.098,0.003 0.194,0.004 0.292,0.004 5.39,0 9.835,-4.291 9.99,-9.714 z"
     id="path837-3"
     style="stroke-width:1" />
  <path
     d="m 265.99938,491.56516 c 0.083,-2.898 0.125,-5.772 0.125,-8.545 -10e-4,-3.962 -0.086,-8.049 -0.254,-12.146 -0.225,-5.519 -4.881,-9.784 -10.398,-9.585 -5.519,0.226 -9.81,4.882 -9.585,10.399 0.156,3.83 0.236,7.645 0.237,11.335 0,2.58 -0.039,5.261 -0.117,7.97 -0.158,5.521 4.189,10.124 9.71,10.282 0.098,0.003 0.194,0.004 0.292,0.004 5.39,0 9.835,-4.291 9.99,-9.714 z"
     id="path837-5"
     style="stroke-width:1" />
  <path
     d="m 245.98254,20.2988 c -0.074,2.716001 -0.112,5.433 -0.113,8.076 0,4.103 0.092,8.351 0.273,12.628 0.228,5.374 4.656,9.577 9.984,9.577 0.143,0 0.287,-0.003 0.431,-0.009 5.518,-0.234 9.802,-4.896 9.567,-10.415 -0.16901,-3.996 -0.255,-7.96 -0.255,-11.779 0,-2.461999 0.036,-4.995 0.105,-7.531 0.15,-5.521 -4.202,-10.119 -9.723,-10.27 -5.55,-0.167 -10.118,4.204 -10.269,9.723 z"
     id="path843-24"
     style="stroke-width:1" />
</svg>
