<svg height="384pt" viewBox="0 -48 384 384" width="384pt" xmlns="http://www.w3.org/2000/svg"><path d="m320 0h-256c-35.289062 0-64 28.710938-64 64v160c0 35.289062 28.710938 64 64 64h256c35.289062 0 64-28.710938 64-64v-160c0-35.289062-28.710938-64-64-64zm32 64v40h-98.800781c-6.605469-18.617188-24.34375-32-45.199219-32-10.289062 0-21.753906 5.785156-32 12.921875v-52.921875h144c17.648438 0 32 14.351562 32 32zm-240 72c-8.824219 0-16-7.175781-16-16s7.175781-16 15.96875-16c4.175781.199219 14.550781 7.089844 24.855469 16.007812-10.289063 8.914063-20.648438 15.792969-24.824219 15.992188zm71.175781-16.007812c10.289063-8.914063 20.648438-15.792969 24.824219-15.992188 8.824219 0 16 7.175781 16 16s-7.175781 16-15.96875 16c-4.175781-.199219-14.542969-7.089844-24.855469-16.007812zm-119.175781-87.992188h80v52.921875c-10.246094-7.136719-21.710938-12.921875-32-12.921875-20.855469 0-38.59375 13.382812-45.199219 32h-34.800781v-40c0-17.648438 14.351562-32 32-32zm-32 192v-88h34.800781c6.457031 18.167969 23.519531 31.3125 43.734375 31.929688l-20.03125 31.476562c-4.742187 7.464844-2.542968 17.355469 4.910156 22.097656 7.457032 4.742188 17.339844 2.535156 22.089844-4.902344l26.496094-41.648437v81.046875h-80c-17.648438 0-32-14.351562-32-32zm288 32h-144v-81.046875l26.503906 41.648437c3.046875 4.78125 8.222656 7.398438 13.511719 7.398438 2.9375 0 5.914063-.808594 8.578125-2.503906 7.453125-4.742188 9.652344-14.632813 4.910156-22.097656l-20.03125-31.476563c20.207032-.617187 37.28125-13.753906 43.734375-31.929687h98.792969v88c0 17.65625-14.351562 32.007812-32 32.007812zm0 0"/></svg>