<svg id="Layer_1" enable-background="new 0 0 510 510" height="512" viewBox="0 0 510 510" width="512" xmlns="http://www.w3.org/2000/svg"><g id="XMLID_1730_"><path id="XMLID_1750_" d="m408.965 16.26-.307.246-2.426 2.17c-22.273-12.176-51.072-7.453-68.037 13.283l-47.92 58.567 65.762 65.761 58.567-47.919c20.898-17.099 25.54-46.219 13.003-68.562l.44-.394c20.935-16.489 51.953-1.773 51.953 25.246v184.295c0 17.705-14.404 32.11-32.109 32.11h-87.891c-33.084 0-60 26.916-60 60s26.916 60 60 60h60v-30h-60c-16.542 0-30-13.458-30-30s13.458-30 30-30h87.891c34.247 0 62.109-27.862 62.109-62.11v-184.295c0-52.282-60.503-80.997-101.035-48.398z"/><path id="XMLID_1815_" d="m102.868 182.08h233.231v90h-233.231z" transform="matrix(.707 -.707 .707 .707 -96.285 221.714)"/><path id="XMLID_1837_" d="m73.385 309.539c-13.963 13.963-16.819 34.813-8.595 51.608l-25.666 22.015c-24.864 21.471-39.124 52.627-39.124 85.479v38.423h30v-38.423c0-24.125 10.473-47.006 28.693-62.74l27.617-23.688c16.635 7.69 36.999 4.681 50.713-9.034l10.607-10.606-63.64-63.64z"/><path id="XMLID_1846_" d="m89.5 477.553h45v30h-45z"/><path id="XMLID_1869_" d="m164.5 477.553h45v30h-45z"/><path id="XMLID_1873_" d="m239.5 477.553h45v30h-45z"/><path id="XMLID_1884_" d="m314.5 477.553h45v30h-45z"/><path id="XMLID_1885_" d="m389.5 477.553h45v30h-45z"/><path id="XMLID_1886_" d="m464.5 477.553h45v30h-45z"/></g></svg>