<svg id="_x33_0" enable-background="new 0 0 64 64" height="512" viewBox="0 0 64 64" width="512" xmlns="http://www.w3.org/2000/svg"><g><path d="m38 1h-1.787c-8.389 0-15.213 6.824-15.213 15.213 0 .556.031 1.121.093 1.68l.79 7.107h-20.883v2h22.412c2.541 0 5.031-.874 7.015-2.461.572-.458 1.076-.984 1.544-1.539h1.372c1.446 0 2.807.563 3.829 1.586 1.557 1.557 3.626 2.414 5.828 2.414v-2c-1.667 0-3.235-.649-4.414-1.828-1.4-1.4-3.263-2.172-5.243-2.172h-.001c.219-.416.417-.843.583-1.285l.607-1.618c.695-1.853 2.489-3.097 4.468-3.097v-2c-2.807 0-5.355 1.766-6.341 4.394l-.388 1.035c-.45-1.43-1.473-2.648-2.823-3.323l-.895 1.789c.979.489 1.69 1.422 1.905 2.494l.372 1.863c-.473.641-1.026 1.224-1.654 1.726-1.503 1.204-3.364 1.901-5.284 2.002l-.812-7.307c-.053-.486-.08-.978-.08-1.46 0-7.285 5.928-13.213 13.213-13.213h1.787c.694 0 1.38.036 2.059.097.268 3.04 1.701 5.871 4.035 7.873 2.007 1.72 3.587 3.927 4.568 6.382.225.558.338 1.146.338 1.747 0 1.012-.334 2.014-.94 2.822-1.314 1.752-2.25 3.717-2.782 5.843l-.248.994 1.941.484.247-.994c.467-1.864 1.288-3.59 2.441-5.127.864-1.152 1.341-2.581 1.341-4.022 0-.856-.161-1.693-.479-2.489-1.102-2.754-2.873-5.229-5.125-7.158-1.82-1.561-2.981-3.73-3.3-6.079 10.734 1.938 18.904 11.343 18.904 22.627v6.136c0 15.916-12.949 28.864-28.865 28.864-6.14 0-11.135-4.995-11.135-11.136 0-1.72.406-3.441 1.176-4.979 1.193-2.388 1.824-5.061 1.824-7.729v-2.156h4v-2h-27v2h21v2.156c0 2.359-.558 4.723-1.613 6.834-.908 1.815-1.387 3.846-1.387 5.875 0 7.242 5.893 13.135 13.136 13.135 17.018 0 30.864-13.846 30.864-30.864v-6.136c0-13.785-11.215-25-25-25z"/><path d="m33.687 35.22c.959 2.879 3.415 4.978 6.408 5.477l1.741.29.328-1.973-1.741-.29c-2.261-.377-4.114-1.962-4.84-4.137-1.114-3.342-4.229-5.587-7.752-5.587h-26.831v2h26.831c2.66 0 5.014 1.695 5.856 4.22z"/><path d="m38.858 45.99.283-1.98-3.431-.49c-1.559-.222-3.057-.696-4.467-1.39-.995-2.336-2.589-4.389-4.644-5.929l-1.199 1.599c2.388 1.791 4.061 4.383 4.708 7.298l.915 4.119 1.953-.434-.915-4.119c-.002-.008-.004-.015-.006-.023 1.091.396 2.216.693 3.372.858z"/><path d="m40.504 53.033c.282-2.256 1.425-4.267 3.22-5.662l1.154-.898c3.255-2.532 5.122-6.349 5.122-10.473h-2c0 3.502-1.586 6.744-4.351 8.895l-1.153.898c-2.217 1.723-3.629 4.206-3.977 6.992-.256 2.04-1.768 3.746-3.762 4.245l.484 1.939c2.791-.696 4.905-3.082 5.263-5.936z"/></g></svg>