<svg id="Layer_1_1_" enable-background="new 0 0 64 64" height="512" viewBox="0 0 64 64" width="512" xmlns="http://www.w3.org/2000/svg"><path d="m33.45 62.122c.644-5.24.357-10.501-.852-15.637-1.024-4.353-1.355-8.82-.984-13.277l.427-5.125-1.992-.166-.427 5.125c-.39 4.667-.043 9.344 1.029 13.902 1.155 4.904 1.429 9.929.814 14.934z"/><path d="m23.11 14.006c-1.951-.217-3.411-.997-4.464-2.387-2.612-3.447-1.67-9.396-1.66-9.456l-1.973-.327c-.046.277-1.097 6.845 2.034 10.984 1.21 1.6 2.865 2.617 4.929 3.032-.323 2.759-2.175 5.115-4.842 6.044l-.937-.632-1.496-5.429-1.928.531 1.594 5.785c.063.23.207.43.404.563l6.792 4.581c.266.179.428.476.435.796.009.342-.149.648-.433.841-.285.191-.629.225-.942.089l-3.038-1.307c-.368-.157-.793-.082-1.083.193-.29.274-.389.695-.251 1.07l3.956 10.767.133.459c.498 1.714-.137 2.022-.346 2.124-.42.206-1.177-.191-1.462-.647-.2-.32-.344-.804-.482-1.272-.068-.229-.136-.454-.209-.666l-1.728-4.979c-.036-.104-.15-.481-.267-.859-.125-.408-.251-.816-.29-.93l-1.889.656c.036.104.15.481.267.859.125.408.251.816.289.929l1.728 4.979c.063.183.122.38.181.58.132.443.279.93.499 1.384l.712 1.98c.077.279-.033.575-.273.736-.225.151-.443.122-.556.089-.111-.031-.315-.12-.392-.273l-3.646-10.474-1.889.658 2.972 8.525-.346.129c-.235.063-.488-.005-.657-.176l-2.563-6.636-1.863.723 2.246 5.813c-.602.068-.96-.209-1.123-.394l-2.748-10.012c-.083-.306-.176-.617-.269-.934-.558-1.887-1.135-3.838-.121-5.342.104-.154.215-.301.325-.447.333-.439.711-.938.917-1.602.234-.758.278-1.535.291-2.127.029-1.361-.133-2.727-.47-3.95-.015-.054-.033-.105-.057-.156l-3.215-6.913-1.814.844 3.18 6.835c.271 1.019.4 2.157.376 3.299-.01.462-.041 1.058-.201 1.576-.102.328-.333.634-.601.987-.134.176-.267.353-.391.537-.981 1.457-1.018 3.052-.757 4.565-.279.927-.654 2.52-.654 3.568v19.832c.001 2.196-.044 8.371-.044 8.372l2 .014s.045-6.186.045-8.386v-18.338l2.329 8.49c.027.097.068.189.122.274.389.606 1.333 1.429 2.697 1.429.396 0 .829-.077 1.292-.24.448.318.983.507 1.556.507.258 0 .522-.035.786-.109l.391-.144.054.154c.328.711.949 1.239 1.703 1.45.238.067.48.1.723.1.523 0 1.042-.154 1.487-.453.789-.53 1.217-1.426 1.16-2.386.129.017.259.029.389.029.387 0 .772-.079 1.136-.256.882-.43 2.234-1.582 1.391-4.48l-3.331-9.176.904.389c.938.401 2.005.303 2.853-.271.847-.572 1.337-1.524 1.313-2.544-.022-.967-.514-1.866-1.315-2.407l-3.585-2.417c2.704-1.432 4.535-4.111 4.879-7.173 9.137-.047 18.429-12.899 18.834-13.468l-1.627-1.162c-.096.135-9.733 13.535-18.076 12.587z"/><path d="m44.113 17.869c1.208 0 2.388-.463 3.214-1.354.655-.707 1.064-1.588 1.185-2.548l1.48-11.844-1.984-.248-1.48 11.844c-.068.542-.299 1.039-.667 1.437-.782.844-2.179.962-3.248.271l-5.07-3.268-1.084 1.682 2.608 1.68c.193 3.477 2.3 6.53 5.449 7.954l-2.931 1.782c-.825.502-1.358 1.377-1.427 2.34-.073 1.021.373 1.994 1.192 2.605.819.612 1.882.762 2.837.403l.921-.346-3.606 8.558-.154.451c-.977 2.855.319 4.07 1.179 4.541.396.216.825.312 1.256.312.082 0 .164-.01.246-.017-.104.932.283 1.866 1.059 2.442.465.345 1.022.524 1.589.524.201 0 .403-.022.603-.068.762-.176 1.406-.675 1.809-1.457l.025-.062.458.193c.27.089.548.131.823.131.519 0 1.021-.165 1.456-.446.516.21.998.303 1.437.303 1.281 0 2.204-.739 2.604-1.305.058-.082.104-.172.135-.268l2.021-6.206v24.115h2v-28.211c0-.015-.005-1.163-.024-1.913.56-1.81.921-3.851-.229-5.744-.115-.19-.24-.373-.365-.556-.251-.366-.467-.682-.554-1.016-.137-.524-.14-1.121-.127-1.584.029-1.172.222-2.332.546-3.323l2.648-7.313-1.881-.682-2.658 7.343c-.394 1.203-.62 2.56-.655 3.922-.016.594-.008 1.373.191 2.14.174.672.527 1.188.839 1.644.104.151.209.303.306.462.779 1.283.472 2.764-.039 4.337l-.039.004c.002.02.004.062.006.1-.096.293-.197.588-.3.887-.108.313-.216.621-.314.923l-3.214 9.868c-.178.182-.549.438-1.14.344l2.516-5.7-1.83-.809-2.873 6.509c-.176.163-.425.227-.584.174l-.415-.176 3.364-8.374-1.855-.746-4.097 10.2c-.124.238-.332.317-.444.344-.113.023-.336.045-.551-.115-.233-.172-.329-.474-.265-.679l.858-2.081-.014-.006c.223-.425.404-.87.549-1.284.069-.198.137-.393.209-.572l1.96-4.893c.044-.111.188-.513.332-.914.134-.372.267-.745.308-.847l-1.857-.742c-.044.111-.188.513-.332.914-.134.372-.267.745-.308.846l-1.96 4.893c-.083.207-.16.429-.239.655-.161.461-.328.938-.543 1.248-.305.439-1.082.796-1.49.578-.203-.111-.823-.45-.245-2.14l4.613-11.02c.154-.368.076-.794-.201-1.081-.276-.288-.699-.385-1.072-.244l-3.096 1.162c-.321.122-.662.072-.938-.133-.274-.205-.418-.519-.395-.86.023-.318.2-.608.473-.774l7-4.257c.204-.124.356-.317.431-.544l1.864-5.703-1.9-.621-1.75 5.352-1.576.959-.638-.212c-2.346-.778-4.073-2.661-4.719-4.955l.193.124c.793.511 1.697.761 2.585.761z"/><path d="m13 51h2v11h-2z"/><path d="m49 51h2v11h-2z"/></svg>