<svg height="512" viewBox="0 0 42 60" width="512" xmlns="http://www.w3.org/2000/svg"><path id="Shape" d="m36.43 44.446c-.017-.008-.03-.022-.047-.029-1.6419228-.929107-3.4964289-1.41728-5.383-1.417h-3v-1.052c5.5-.524 7-5.334 7-7.948v-4.191c.3760156-.7477188.645305-1.5444791.8-2.367.0966041-.4659923.1607582-.9381262.192-1.413 0-.01.006-.019.006-.029v-11.671c-.0008158-1.3055861-.6373324-2.5289964-1.706-3.279-1.3991131-.8754803-2.927071-1.52573979-4.528-1.927.2895505-.70256164.3017019-1.48882628.034-2.2-.3202512-.84551952-1.0087912-1.49871203-1.87-1.774-1.0611539-.34470185-2.1451369-.61469514-3.244-.808l-.544-2.733c-.1867873-.93451276-1.007003-1.60742445-1.96-1.608h-2.36c-.9509129-.00066949-1.7708176.6682992-1.961 1.6l-.545 2.737c-1.0972042.19250882-2.1795335.46183808-3.239.806-.7933809.25333045-1.4441848.82772823-1.7941228 1.58348802-.3499381.75575979-.3669424 1.62362462-.0468772 2.39251198-1.6010773.40081862-3.12910229 1.0511067-4.528 1.927-1.06982396.7508154-1.70648748 1.9760008-1.706 3.283v11.671l.005.026c.03115307.4745522.09530819.9463596.192 1.412.1545517.8238363.42383916 1.621937.8 2.371v4.191c0 2.614 1.5 7.424 7 7.948v1.052h-2.997c-1.88657106-.00028-3.74107717.487893-5.383 1.417-.017.007-.03.02-.046.028-3.43965901 1.9519218-5.56671299 5.6001-5.571 9.555v3c0 1.6568542 1.34314575 3 3 3h36c1.6568542 0 3-1.3431458 3-3v-3c-.004442-3.9543342-2.1310369-7.6019981-5.57-9.554zm-5.43 13.554h-6v-2.523c.4531322-.5221723.7978256-1.1292951 1.014-1.786.1073106-.2909431.2349591-.5739753.382-.847.3361519.0196899.6686269.0804758.99.181.857.215 1.922.482 2.635-.3s.489-1.937.284-2.944c-.090444-.3562-.1437286-.7208143-.159-1.088.2925281-.2625141.6267771-.4744192.989-.627.784-.4 1.673-.852 1.821-1.8.0627556-.3478396.0535666-.7048494-.027-1.049.7180352.1575892 1.4137005.4038098 2.071.733v8.05c0 2.209139-1.790861 4-4 4zm-20 0c-2.209139 0-4-1.790861-4-4v-8.05c.65817534-.3305363 1.35483489-.5780957 2.074-.737-.08322073.3481313-.09343526.7097259-.03 1.062.159.948 1.042 1.4 1.821 1.8.3542725.1509566.6844606.3531126.98.6-.0057001.3712907-.055721.7405722-.149 1.1-.206 1.008-.438 2.15.284 2.946s1.779.516 2.634.3c.3230295-.0890644.6527917-.1516055.986-.187.1493199.2745279.2783317.5596239.386.853.2156208.6584531.5603379 1.2673174 1.014 1.791v2.522zm7.756-4.623c-.147.15-.342.351-.5.49-.1566003-.2981541-.2945325-.6057462-.413-.921-.1902308-.7506605-.6365829-1.4113465-1.262-1.868-.790192-.3022181-1.6645457-.299723-2.453.007-.19.048-.445.112-.64.144.0326331-.3539374.0884193-.7053566.167-1.052.2394484-.7381622.2506011-1.5313977.032-2.276-.4305648-.7434219-1.107159-1.3132041-1.913-1.611-.2699847-.1264386-.5288917-.2752934-.774-.445-.023-.22.046-.306.519-.671.072-.055.138-.117.209-.174h2.372c.408 2.13 2.159 5 6.9 5s6.488-2.87 6.9-5h2.376c.073.058.141.122.214.179.464.354.535.441.511.659-.2433317.1688798-.5005931.3167465-.769.442-.8036183.2954272-1.4795334.8610465-1.912 1.6-.2199315.7493457-.2098288 1.5474614.029 2.291.064.318.163.8.191 1.057-.2-.031-.466-.1-.664-.148-.7870195-.3063402-1.6597502-.3095474-2.449-.009-.6274188.4563737-1.0753136 1.1179561-1.266 1.87-.1184675.3152538-.2563997.6228459-.413.921-.158-.139-.353-.34-.5-.49-.5377711-.7338232-1.3477124-1.2209409-2.248-1.352-.8996362.1333122-1.7080942.6222059-2.244 1.357zm-8.865-22.951c-.9147939-.914049-1.51985824-2.0920008-1.73-3.368-.17711025-.6407517-.21124868-1.312596-.1-1.968.6712398-.1757575 1.3860275-.0146786 1.917.432.006.255.015.427.021.506v4.485c-.034-.032-.074-.054-.108-.087zm23.947-3.364c-.2109542 1.2761548-.8166938 2.4540595-1.732 3.368-.033.031-.072.053-.106.084 0 0 .015-4.737.021-4.992.5306375-.4473396 1.2456044-.6088319 1.917-.433.1115658.6570535.0774279 1.330594-.1 1.973zm-21.608 4.987c-.1524436-.4558397-.2301143-.9333454-.23-1.414v-5.753c-.0004776-.0413141.0035462-.0825573.012-.123.331-.248 1.275-.817 2.372-1.476 2.2764561-1.3146819 4.4846366-2.7441918 6.616-4.283 2.1313634 1.5388082 4.3395439 2.9683181 6.616 4.283 1.1.659 2.043 1.229 2.347 1.454.0266725.0434966.0395701.0940415.037.145v5.753c.0001143.4806546-.0775564.9581603-.23 1.414-.6286822 1.882961-1.4217371 3.7069871-2.37 5.451-1.393 2.509-3.633 5.5-6.4 5.5s-5.007-2.991-6.4-5.5c-.9482629-1.7440129-1.7413178-3.568039-2.37-5.451zm.049-9.831c.3086687-1.7539531 1.0853535-3.3919703 2.248-4.741 1.6998754-1.7199231 4.0591923-2.6227546 6.473-2.477 2.4095054-.1444393 4.7647011.7546517 6.465 2.468 1.164657 1.350405 1.9424453 2.9906363 2.251 4.747-2.126-1.292-5.49-3.252-7.493-4.8-.7203126-.5566815-1.7256874-.5566815-2.446 0-2.003 1.549-5.369 3.509-7.498 4.803zm3.721 20.501c1.2995156 1.3915248 3.0972978 2.211673 5 2.281 1.9027022-.069327 3.7004844-.8894752 5-2.281v1.275c-.005.406-.191 4.006-5 4.006s-5-3.6-5-4zm12.3-2.832c.288-.445.572-.913.851-1.416.9132177-1.6729452 1.6897451-3.416955 2.322-5.215.5458501-.2556276 1.0586094-.5766478 1.527-.956v1.7c0 .561-.186 5.143-4.7 5.887zm-8.48-37.887h2.36l.414 2.074c-1.060751-.08199998-2.126249-.08199998-3.187 0zm-5.677 6.524c-.1590401-.26836745-.1866657-.59471727-.075-.886.1056644-.28078782.3347134-.49729629.621-.587 2.0365299-.67510588 4.165594-1.02966876 6.311-1.051 2.1468703.02138431 4.2773455.3766322 6.315 1.053.2847257.08967245.5123052.30544881.617.585.111571.28973042.0846864.61455506-.073.882l-.076.127c-4.4811292-.86333927-9.0858708-.86333927-13.567 0zm-5.289 4.164c1.326-.93 5.569-2.688 12.146-2.688s10.82 1.758 12.146 2.688c.5357387.3745664.8546173.9873063.854 1.641v8.73c-.7036033-.1126819-1.4245722-.0335722-2.087.229-.217156-2.6400783-1.2553764-5.1459346-2.969-7.166-2.0719189-2.1405049-4.9691174-3.2791068-7.944-3.122-2.9748826-.1571068-5.8720811.9814951-7.944 3.122-1.7134317 2.0197937-2.75164 4.525271-2.969 7.165-.66250818-.2622834-1.38348765-.3410487-2.087-.228v-8.73c-.0006173-.6536937.31826135-1.2664336.854-1.641zm.146 21.312v-1.7c.4698415.3795743.98432431.7002865 1.532.955.6322549 1.798045 1.4087823 3.5420548 2.322 5.215.279.5.563.971.851 1.416-4.519-.743-4.705-5.324-4.705-5.886zm-7 23v-3c.00177278-2.5551572 1.0930382-4.9883154 3-6.689v6.689c.00029269 1.4782155.54944793 2.9036672 1.541 4h-3.541c-.55228475 0-1-.4477153-1-1zm17 1v-2.229c.442325-.2740604.8425017-.6109095 1.188-1 .2442633-.2720822.5164223-.5177626.812-.733.2956276.2155514.5677884.4615687.812.734.3451134.3914584.7452974.7306716 1.188 1.007v2.221zm21-1c0 .5522847-.4477153 1-1 1h-3.541c.9915521-1.0963328 1.5407073-2.5217845 1.541-4v-6.689c1.9069618 1.7006846 2.9982272 4.1338428 3 6.689z"/></svg>